<?xml version="1.0" encoding="UTF-8" standalone="no"?>
<!DOCTYPE svg PUBLIC "-//W3C//DTD SVG 1.1//EN"
 "http://www.w3.org/Graphics/SVG/1.1/DTD/svg11.dtd">
<!-- Generated by graphviz version 6.0.2 (20221011.1828)
 -->
<!-- Title: list Pages: 1 -->
<svg width="1137pt" height="386pt"
 viewBox="0.00 0.00 1137.00 386.00" xmlns="http://www.w3.org/2000/svg" xmlns:xlink="http://www.w3.org/1999/xlink">
<g id="graph0" class="graph" transform="scale(1 1) rotate(0) translate(4 382)">
<title>list</title>
<polygon fill="#ffffff" stroke="none" points="-4,4 -4,-382 1133,-382 1133,4 -4,4"/>
<!-- Q00C71558 -->
<g id="node1" class="node">
<title>Q00C71558</title>
<polygon fill="#b2ec5d" stroke="black" points="0,-132.5 0,-201.5 166,-201.5 166,-132.5 0,-132.5"/>
<text text-anchor="middle" x="22" y="-163.3" font-family="Times New Roman,serif" font-size="14.00">soup</text>
<polyline fill="none" stroke="black" points="44,-132.5 44,-201.5"/>
<text text-anchor="middle" x="69.5" y="-186.3" font-family="Times New Roman,serif" font-size="14.00">parent</text>
<polyline fill="none" stroke="black" points="95,-178.5 95,-201.5"/>
<text text-anchor="middle" x="130.5" y="-186.3" font-family="Times New Roman,serif" font-size="14.00">00000000</text>
<polyline fill="none" stroke="black" points="44,-178.5 166,-178.5"/>
<text text-anchor="middle" x="63.5" y="-163.3" font-family="Times New Roman,serif" font-size="14.00">left</text>
<polyline fill="none" stroke="black" points="83,-155.5 83,-178.5"/>
<text text-anchor="middle" x="124.5" y="-163.3" font-family="Times New Roman,serif" font-size="14.00">00C716C8</text>
<polyline fill="none" stroke="black" points="44,-155.5 166,-155.5"/>
<text text-anchor="middle" x="66" y="-140.3" font-family="Times New Roman,serif" font-size="14.00">right</text>
<polyline fill="none" stroke="black" points="88,-132.5 88,-155.5"/>
<text text-anchor="middle" x="127" y="-140.3" font-family="Times New Roman,serif" font-size="14.00">00C717F8</text>
</g>
<!-- Q00C716C8 -->
<g id="node2" class="node">
<title>Q00C716C8</title>
<polygon fill="#b2ec5d" stroke="black" points="202,-176.5 202,-245.5 408,-245.5 408,-176.5 202,-176.5"/>
<text text-anchor="middle" x="242.5" y="-207.3" font-family="Times New Roman,serif" font-size="14.00">with garnier</text>
<polyline fill="none" stroke="black" points="283,-176.5 283,-245.5"/>
<text text-anchor="middle" x="308.5" y="-230.3" font-family="Times New Roman,serif" font-size="14.00">parent</text>
<polyline fill="none" stroke="black" points="334,-222.5 334,-245.5"/>
<text text-anchor="middle" x="371" y="-230.3" font-family="Times New Roman,serif" font-size="14.00">00C71558</text>
<polyline fill="none" stroke="black" points="283,-222.5 408,-222.5"/>
<text text-anchor="middle" x="304" y="-207.3" font-family="Times New Roman,serif" font-size="14.00">left</text>
<polyline fill="none" stroke="black" points="325,-199.5 325,-222.5"/>
<text text-anchor="middle" x="366.5" y="-207.3" font-family="Times New Roman,serif" font-size="14.00">00C716F8</text>
<polyline fill="none" stroke="black" points="283,-199.5 408,-199.5"/>
<text text-anchor="middle" x="305" y="-184.3" font-family="Times New Roman,serif" font-size="14.00">right</text>
<polyline fill="none" stroke="black" points="327,-176.5 327,-199.5"/>
<text text-anchor="middle" x="367.5" y="-184.3" font-family="Times New Roman,serif" font-size="14.00">00C717D0</text>
</g>
<!-- Q00C71558&#45;&gt;Q00C716C8 -->
<g id="edge9" class="edge">
<title>Q00C71558&#45;&gt;Q00C716C8</title>
<path fill="none" stroke="black" d="M166.23,-183.45C174.57,-185.11 183.13,-186.83 191.71,-188.54"/>
<polygon fill="black" stroke="black" points="191.28,-192.03 201.77,-190.55 192.66,-185.16 191.28,-192.03"/>
</g>
<!-- Q00C717F8 -->
<g id="node9" class="node">
<title>Q00C717F8</title>
<polygon fill="#b2ec5d" stroke="black" points="217,-88.5 217,-157.5 393,-157.5 393,-88.5 217,-88.5"/>
<text text-anchor="middle" x="242.5" y="-119.3" font-family="Times New Roman,serif" font-size="14.00">its red</text>
<polyline fill="none" stroke="black" points="268,-88.5 268,-157.5"/>
<text text-anchor="middle" x="293.5" y="-142.3" font-family="Times New Roman,serif" font-size="14.00">parent</text>
<polyline fill="none" stroke="black" points="319,-134.5 319,-157.5"/>
<text text-anchor="middle" x="356" y="-142.3" font-family="Times New Roman,serif" font-size="14.00">00C71558</text>
<polyline fill="none" stroke="black" points="268,-134.5 393,-134.5"/>
<text text-anchor="middle" x="289" y="-119.3" font-family="Times New Roman,serif" font-size="14.00">left</text>
<polyline fill="none" stroke="black" points="310,-111.5 310,-134.5"/>
<text text-anchor="middle" x="351.5" y="-119.3" font-family="Times New Roman,serif" font-size="14.00">00C71820</text>
<polyline fill="none" stroke="black" points="268,-111.5 393,-111.5"/>
<text text-anchor="middle" x="291" y="-96.3" font-family="Times New Roman,serif" font-size="14.00">right</text>
<polyline fill="none" stroke="black" points="314,-88.5 314,-111.5"/>
<text text-anchor="middle" x="353.5" y="-96.3" font-family="Times New Roman,serif" font-size="14.00">00C71850</text>
</g>
<!-- Q00C71558&#45;&gt;Q00C717F8 -->
<g id="edge10" class="edge">
<title>Q00C71558&#45;&gt;Q00C717F8</title>
<path fill="none" stroke="black" d="M166.23,-150.55C179.49,-147.9 193.33,-145.13 206.89,-142.42"/>
<polygon fill="black" stroke="black" points="207.6,-145.85 216.72,-140.46 206.22,-138.99 207.6,-145.85"/>
</g>
<!-- Q00C716F8 -->
<g id="node3" class="node">
<title>Q00C716F8</title>
<polygon fill="#b2ec5d" stroke="black" points="444,-264.5 444,-333.5 661,-333.5 661,-264.5 444,-264.5"/>
<text text-anchor="middle" x="488.5" y="-295.3" font-family="Times New Roman,serif" font-size="14.00">mashed meat</text>
<polyline fill="none" stroke="black" points="533,-264.5 533,-333.5"/>
<text text-anchor="middle" x="558.5" y="-318.3" font-family="Times New Roman,serif" font-size="14.00">parent</text>
<polyline fill="none" stroke="black" points="584,-310.5 584,-333.5"/>
<text text-anchor="middle" x="622.5" y="-318.3" font-family="Times New Roman,serif" font-size="14.00">00C716C8</text>
<polyline fill="none" stroke="black" points="533,-310.5 661,-310.5"/>
<text text-anchor="middle" x="555" y="-295.3" font-family="Times New Roman,serif" font-size="14.00">left</text>
<polyline fill="none" stroke="black" points="577,-287.5 577,-310.5"/>
<text text-anchor="middle" x="619" y="-295.3" font-family="Times New Roman,serif" font-size="14.00">00C71728</text>
<polyline fill="none" stroke="black" points="533,-287.5 661,-287.5"/>
<text text-anchor="middle" x="556.5" y="-272.3" font-family="Times New Roman,serif" font-size="14.00">right</text>
<polyline fill="none" stroke="black" points="580,-264.5 580,-287.5"/>
<text text-anchor="middle" x="620.5" y="-272.3" font-family="Times New Roman,serif" font-size="14.00">00C71750</text>
</g>
<!-- Q00C716C8&#45;&gt;Q00C716F8 -->
<g id="edge5" class="edge">
<title>Q00C716C8&#45;&gt;Q00C716F8</title>
<path fill="none" stroke="black" d="M402.32,-245.53C416.4,-250.57 430.97,-255.8 445.23,-260.91"/>
<polygon fill="black" stroke="black" points="444.46,-264.35 455.05,-264.43 446.82,-257.76 444.46,-264.35"/>
</g>
<!-- Q00C717D0 -->
<g id="node8" class="node">
<title>Q00C717D0</title>
<polygon fill="#ff7b61" stroke="black" points="465.5,-176.5 465.5,-245.5 639.5,-245.5 639.5,-176.5 465.5,-176.5"/>
<text text-anchor="middle" x="488.5" y="-207.3" font-family="Times New Roman,serif" font-size="14.00">mash</text>
<polyline fill="none" stroke="black" points="511.5,-176.5 511.5,-245.5"/>
<text text-anchor="middle" x="537" y="-230.3" font-family="Times New Roman,serif" font-size="14.00">parent</text>
<polyline fill="none" stroke="black" points="562.5,-222.5 562.5,-245.5"/>
<text text-anchor="middle" x="601" y="-230.3" font-family="Times New Roman,serif" font-size="14.00">00C716C8</text>
<polyline fill="none" stroke="black" points="511.5,-222.5 639.5,-222.5"/>
<text text-anchor="middle" x="534" y="-207.3" font-family="Times New Roman,serif" font-size="14.00">left</text>
<polyline fill="none" stroke="black" points="556.5,-199.5 556.5,-222.5"/>
<text text-anchor="middle" x="598" y="-207.3" font-family="Times New Roman,serif" font-size="14.00">00000000</text>
<polyline fill="none" stroke="black" points="511.5,-199.5 639.5,-199.5"/>
<text text-anchor="middle" x="536" y="-184.3" font-family="Times New Roman,serif" font-size="14.00">right</text>
<polyline fill="none" stroke="black" points="560.5,-176.5 560.5,-199.5"/>
<text text-anchor="middle" x="600" y="-184.3" font-family="Times New Roman,serif" font-size="14.00">00000000</text>
</g>
<!-- Q00C716C8&#45;&gt;Q00C717D0 -->
<g id="edge6" class="edge">
<title>Q00C716C8&#45;&gt;Q00C717D0</title>
<path fill="none" stroke="black" d="M408.34,-211C423.88,-211 439.87,-211 455.27,-211"/>
<polygon fill="black" stroke="black" points="455.3,-214.5 465.3,-211 455.3,-207.5 455.3,-214.5"/>
</g>
<!-- Q00C71728 -->
<g id="node4" class="node">
<title>Q00C71728</title>
<polygon fill="#ff7b61" stroke="black" points="717.5,-308.5 717.5,-377.5 888.5,-377.5 888.5,-308.5 717.5,-308.5"/>
<text text-anchor="middle" x="740" y="-339.3" font-family="Times New Roman,serif" font-size="14.00">steak</text>
<polyline fill="none" stroke="black" points="762.5,-308.5 762.5,-377.5"/>
<text text-anchor="middle" x="788" y="-362.3" font-family="Times New Roman,serif" font-size="14.00">parent</text>
<polyline fill="none" stroke="black" points="813.5,-354.5 813.5,-377.5"/>
<text text-anchor="middle" x="851" y="-362.3" font-family="Times New Roman,serif" font-size="14.00">00C716F8</text>
<polyline fill="none" stroke="black" points="762.5,-354.5 888.5,-354.5"/>
<text text-anchor="middle" x="784.5" y="-339.3" font-family="Times New Roman,serif" font-size="14.00">left</text>
<polyline fill="none" stroke="black" points="806.5,-331.5 806.5,-354.5"/>
<text text-anchor="middle" x="847.5" y="-339.3" font-family="Times New Roman,serif" font-size="14.00">00000000</text>
<polyline fill="none" stroke="black" points="762.5,-331.5 888.5,-331.5"/>
<text text-anchor="middle" x="786.5" y="-316.3" font-family="Times New Roman,serif" font-size="14.00">right</text>
<polyline fill="none" stroke="black" points="810.5,-308.5 810.5,-331.5"/>
<text text-anchor="middle" x="849.5" y="-316.3" font-family="Times New Roman,serif" font-size="14.00">00000000</text>
</g>
<!-- Q00C716F8&#45;&gt;Q00C71728 -->
<g id="edge3" class="edge">
<title>Q00C716F8&#45;&gt;Q00C71728</title>
<path fill="none" stroke="black" d="M661.05,-318.04C676.29,-320.74 691.87,-323.5 706.86,-326.15"/>
<polygon fill="black" stroke="black" points="706.67,-329.67 717.12,-327.97 707.89,-322.78 706.67,-329.67"/>
</g>
<!-- Q00C71750 -->
<g id="node5" class="node">
<title>Q00C71750</title>
<polygon fill="#b2ec5d" stroke="black" points="697,-220.5 697,-289.5 909,-289.5 909,-220.5 697,-220.5"/>
<text text-anchor="middle" x="740" y="-251.3" font-family="Times New Roman,serif" font-size="14.00">with chicken</text>
<polyline fill="none" stroke="black" points="783,-220.5 783,-289.5"/>
<text text-anchor="middle" x="808.5" y="-274.3" font-family="Times New Roman,serif" font-size="14.00">parent</text>
<polyline fill="none" stroke="black" points="834,-266.5 834,-289.5"/>
<text text-anchor="middle" x="871.5" y="-274.3" font-family="Times New Roman,serif" font-size="14.00">00C716F8</text>
<polyline fill="none" stroke="black" points="783,-266.5 909,-266.5"/>
<text text-anchor="middle" x="804.5" y="-251.3" font-family="Times New Roman,serif" font-size="14.00">left</text>
<polyline fill="none" stroke="black" points="826,-243.5 826,-266.5"/>
<text text-anchor="middle" x="867.5" y="-251.3" font-family="Times New Roman,serif" font-size="14.00">00C71780</text>
<polyline fill="none" stroke="black" points="783,-243.5 909,-243.5"/>
<text text-anchor="middle" x="805.5" y="-228.3" font-family="Times New Roman,serif" font-size="14.00">right</text>
<polyline fill="none" stroke="black" points="828,-220.5 828,-243.5"/>
<text text-anchor="middle" x="868.5" y="-228.3" font-family="Times New Roman,serif" font-size="14.00">00C717A8</text>
</g>
<!-- Q00C716F8&#45;&gt;Q00C71750 -->
<g id="edge4" class="edge">
<title>Q00C716F8&#45;&gt;Q00C71750</title>
<path fill="none" stroke="black" d="M661.05,-279.96C669.54,-278.45 678.13,-276.93 686.66,-275.42"/>
<polygon fill="black" stroke="black" points="687.41,-278.84 696.64,-273.65 686.19,-271.95 687.41,-278.84"/>
</g>
<!-- Q00C71780 -->
<g id="node6" class="node">
<title>Q00C71780</title>
<polygon fill="#ff7b61" stroke="black" points="948,-264.5 948,-333.5 1126,-333.5 1126,-264.5 948,-264.5"/>
<text text-anchor="middle" x="974.5" y="-295.3" font-family="Times New Roman,serif" font-size="14.00">cotlets</text>
<polyline fill="none" stroke="black" points="1001,-264.5 1001,-333.5"/>
<text text-anchor="middle" x="1026.5" y="-318.3" font-family="Times New Roman,serif" font-size="14.00">parent</text>
<polyline fill="none" stroke="black" points="1052,-310.5 1052,-333.5"/>
<text text-anchor="middle" x="1089" y="-318.3" font-family="Times New Roman,serif" font-size="14.00">00C71750</text>
<polyline fill="none" stroke="black" points="1001,-310.5 1126,-310.5"/>
<text text-anchor="middle" x="1023" y="-295.3" font-family="Times New Roman,serif" font-size="14.00">left</text>
<polyline fill="none" stroke="black" points="1045,-287.5 1045,-310.5"/>
<text text-anchor="middle" x="1085.5" y="-295.3" font-family="Times New Roman,serif" font-size="14.00">00000000</text>
<polyline fill="none" stroke="black" points="1001,-287.5 1126,-287.5"/>
<text text-anchor="middle" x="1024.5" y="-272.3" font-family="Times New Roman,serif" font-size="14.00">right</text>
<polyline fill="none" stroke="black" points="1048,-264.5 1048,-287.5"/>
<text text-anchor="middle" x="1087" y="-272.3" font-family="Times New Roman,serif" font-size="14.00">00000000</text>
</g>
<!-- Q00C71750&#45;&gt;Q00C71780 -->
<g id="edge1" class="edge">
<title>Q00C71750&#45;&gt;Q00C71780</title>
<path fill="none" stroke="black" d="M909.14,-274.94C918.75,-276.76 928.46,-278.6 938,-280.41"/>
<polygon fill="black" stroke="black" points="937.4,-283.86 947.88,-282.29 938.7,-276.98 937.4,-283.86"/>
</g>
<!-- Q00C717A8 -->
<g id="node7" class="node">
<title>Q00C717A8</title>
<polygon fill="#ff7b61" stroke="black" points="945,-176.5 945,-245.5 1129,-245.5 1129,-176.5 945,-176.5"/>
<text text-anchor="middle" x="974.5" y="-207.3" font-family="Times New Roman,serif" font-size="14.00">chicken</text>
<polyline fill="none" stroke="black" points="1004,-176.5 1004,-245.5"/>
<text text-anchor="middle" x="1029.5" y="-230.3" font-family="Times New Roman,serif" font-size="14.00">parent</text>
<polyline fill="none" stroke="black" points="1055,-222.5 1055,-245.5"/>
<text text-anchor="middle" x="1092" y="-230.3" font-family="Times New Roman,serif" font-size="14.00">00C71750</text>
<polyline fill="none" stroke="black" points="1004,-222.5 1129,-222.5"/>
<text text-anchor="middle" x="1026" y="-207.3" font-family="Times New Roman,serif" font-size="14.00">left</text>
<polyline fill="none" stroke="black" points="1048,-199.5 1048,-222.5"/>
<text text-anchor="middle" x="1088.5" y="-207.3" font-family="Times New Roman,serif" font-size="14.00">00000000</text>
<polyline fill="none" stroke="black" points="1004,-199.5 1129,-199.5"/>
<text text-anchor="middle" x="1027.5" y="-184.3" font-family="Times New Roman,serif" font-size="14.00">right</text>
<polyline fill="none" stroke="black" points="1051,-176.5 1051,-199.5"/>
<text text-anchor="middle" x="1090" y="-184.3" font-family="Times New Roman,serif" font-size="14.00">00000000</text>
</g>
<!-- Q00C71750&#45;&gt;Q00C717A8 -->
<g id="edge2" class="edge">
<title>Q00C71750&#45;&gt;Q00C717A8</title>
<path fill="none" stroke="black" d="M909.14,-235.06C917.67,-233.44 926.28,-231.81 934.78,-230.2"/>
<polygon fill="black" stroke="black" points="935.53,-233.62 944.7,-228.31 934.23,-226.74 935.53,-233.62"/>
</g>
<!-- Q00C71820 -->
<g id="node10" class="node">
<title>Q00C71820</title>
<polygon fill="#ff7b61" stroke="black" points="457,-88.5 457,-157.5 648,-157.5 648,-88.5 457,-88.5"/>
<text text-anchor="middle" x="489.5" y="-119.3" font-family="Times New Roman,serif" font-size="14.00">solyanka</text>
<polyline fill="none" stroke="black" points="522,-88.5 522,-157.5"/>
<text text-anchor="middle" x="547.5" y="-142.3" font-family="Times New Roman,serif" font-size="14.00">parent</text>
<polyline fill="none" stroke="black" points="573,-134.5 573,-157.5"/>
<text text-anchor="middle" x="610.5" y="-142.3" font-family="Times New Roman,serif" font-size="14.00">00C717F8</text>
<polyline fill="none" stroke="black" points="522,-134.5 648,-134.5"/>
<text text-anchor="middle" x="544" y="-119.3" font-family="Times New Roman,serif" font-size="14.00">left</text>
<polyline fill="none" stroke="black" points="566,-111.5 566,-134.5"/>
<text text-anchor="middle" x="607" y="-119.3" font-family="Times New Roman,serif" font-size="14.00">00000000</text>
<polyline fill="none" stroke="black" points="522,-111.5 648,-111.5"/>
<text text-anchor="middle" x="546" y="-96.3" font-family="Times New Roman,serif" font-size="14.00">right</text>
<polyline fill="none" stroke="black" points="570,-88.5 570,-111.5"/>
<text text-anchor="middle" x="609" y="-96.3" font-family="Times New Roman,serif" font-size="14.00">00000000</text>
</g>
<!-- Q00C717F8&#45;&gt;Q00C71820 -->
<g id="edge7" class="edge">
<title>Q00C717F8&#45;&gt;Q00C71820</title>
<path fill="none" stroke="black" d="M393.25,-123C410.41,-123 428.59,-123 446.28,-123"/>
<polygon fill="black" stroke="black" points="446.62,-126.5 456.62,-123 446.62,-119.5 446.62,-126.5"/>
</g>
<!-- Q00C71850 -->
<g id="node11" class="node">
<title>Q00C71850</title>
<polygon fill="#ff7b61" stroke="black" points="465,-0.5 465,-69.5 640,-69.5 640,-0.5 465,-0.5"/>
<text text-anchor="middle" x="489.5" y="-31.3" font-family="Times New Roman,serif" font-size="14.00">borsh</text>
<polyline fill="none" stroke="black" points="514,-0.5 514,-69.5"/>
<text text-anchor="middle" x="539.5" y="-54.3" font-family="Times New Roman,serif" font-size="14.00">parent</text>
<polyline fill="none" stroke="black" points="565,-46.5 565,-69.5"/>
<text text-anchor="middle" x="602.5" y="-54.3" font-family="Times New Roman,serif" font-size="14.00">00C717F8</text>
<polyline fill="none" stroke="black" points="514,-46.5 640,-46.5"/>
<text text-anchor="middle" x="536" y="-31.3" font-family="Times New Roman,serif" font-size="14.00">left</text>
<polyline fill="none" stroke="black" points="558,-23.5 558,-46.5"/>
<text text-anchor="middle" x="599" y="-31.3" font-family="Times New Roman,serif" font-size="14.00">00000000</text>
<polyline fill="none" stroke="black" points="514,-23.5 640,-23.5"/>
<text text-anchor="middle" x="538" y="-8.3" font-family="Times New Roman,serif" font-size="14.00">right</text>
<polyline fill="none" stroke="black" points="562,-0.5 562,-23.5"/>
<text text-anchor="middle" x="601" y="-8.3" font-family="Times New Roman,serif" font-size="14.00">00000000</text>
</g>
<!-- Q00C717F8&#45;&gt;Q00C71850 -->
<g id="edge8" class="edge">
<title>Q00C717F8&#45;&gt;Q00C71850</title>
<path fill="none" stroke="black" d="M393.25,-91.73C413.35,-84.52 434.85,-76.81 455.31,-69.48"/>
<polygon fill="black" stroke="black" points="456.72,-72.69 464.95,-66.02 454.35,-66.1 456.72,-72.69"/>
</g>
</g>
</svg>
